# xmcd
# 
# Track frame offsets:
#     150
#     17437
#     30627
#     47092
# 
# Disc length: 861
# 
# Revision: 3
# Processed by: cddbd v1.5.2PL0 Copyright (c) Steve Scherf et al.
# Submitted via: BonkEnc v1.0.8
# 
DISCID=24035b04
DTITLE=Mc Skat Kat and The Stray Mob - Skat Strut [CD Single)
DYEAR=1991
DGENRE=Rap
TTITLE0=Skat Strut [Club Version]
TTITLE1=Skat Strut [Video Version]
TTITLE2=Skat Strut [Album Version]
TTITLE3=Get A Grip
EXTD=YEAR: 1991
EXTT0=
EXTT1=
EXTT2=
EXTT3=
PLAYORDER=
